<mxfile host="app.diagrams.net" modified="2024-03-18T08:19:51.007Z" agent="Mozilla/5.0 (Macintosh; Intel Mac OS X 10_15_7) AppleWebKit/537.36 (KHTML, like Gecko) Chrome/122.0.0.0 Safari/537.36" etag="dW6IUy8A7b1Xuckj57Hs" version="24.0.6" type="device">
  <diagram name="Page-1" id="w0F4990IebUHdaa1SNlP">
    <mxGraphModel dx="2062" dy="733" grid="1" gridSize="10" guides="1" tooltips="1" connect="1" arrows="1" fold="1" page="1" pageScale="1" pageWidth="827" pageHeight="1169" math="0" shadow="0">
      <root>
        <mxCell id="0" />
        <mxCell id="1" parent="0" />
        <mxCell id="8ZNE8kO5BKtXkHlJv4oJ-1" value="" style="rounded=0;whiteSpace=wrap;html=1;" parent="1" vertex="1">
          <mxGeometry x="-66" y="50" width="1176" height="1380" as="geometry" />
        </mxCell>
        <mxCell id="8ZNE8kO5BKtXkHlJv4oJ-2" value="BikeNetworksView" style="rounded=0;whiteSpace=wrap;html=1;fillColor=#dae8fc;strokeColor=#6c8ebf;" parent="1" vertex="1">
          <mxGeometry x="100" y="150" width="140" height="60" as="geometry" />
        </mxCell>
        <mxCell id="8ZNE8kO5BKtXkHlJv4oJ-3" value="BikeNetworksViewModel" style="rounded=0;whiteSpace=wrap;html=1;fillColor=#dae8fc;strokeColor=#6c8ebf;" parent="1" vertex="1">
          <mxGeometry x="370" y="150" width="160" height="60" as="geometry" />
        </mxCell>
        <mxCell id="8ZNE8kO5BKtXkHlJv4oJ-4" value="&amp;lt;interface&amp;gt;&lt;div&gt;BikeNetworkUseCase&lt;/div&gt;" style="rounded=0;whiteSpace=wrap;html=1;fillColor=#B3B3B3;" parent="1" vertex="1">
          <mxGeometry x="370" y="300" width="160" height="60" as="geometry" />
        </mxCell>
        <mxCell id="8ZNE8kO5BKtXkHlJv4oJ-5" value="BikeNetworkUseCaseImpl" style="rounded=0;whiteSpace=wrap;html=1;fillColor=#dae8fc;strokeColor=#6c8ebf;" parent="1" vertex="1">
          <mxGeometry x="370" y="420" width="160" height="60" as="geometry" />
        </mxCell>
        <mxCell id="8ZNE8kO5BKtXkHlJv4oJ-6" value="&amp;lt;interface&amp;gt;&lt;div&gt;BikeNetworkRepository&lt;/div&gt;" style="rounded=0;whiteSpace=wrap;html=1;fillColor=#B3B3B3;" parent="1" vertex="1">
          <mxGeometry x="365" y="540" width="170" height="60" as="geometry" />
        </mxCell>
        <mxCell id="8ZNE8kO5BKtXkHlJv4oJ-7" value="BikeNetworkRepositoryImpl" style="rounded=0;whiteSpace=wrap;html=1;fillColor=#dae8fc;strokeColor=#6c8ebf;" parent="1" vertex="1">
          <mxGeometry x="365" y="690" width="170" height="60" as="geometry" />
        </mxCell>
        <mxCell id="8ZNE8kO5BKtXkHlJv4oJ-8" value="&amp;lt;interface&amp;gt;&lt;div&gt;BikeNetworkDataSource&lt;/div&gt;" style="rounded=0;whiteSpace=wrap;html=1;fillColor=#B3B3B3;" parent="1" vertex="1">
          <mxGeometry x="365" y="800" width="170" height="60" as="geometry" />
        </mxCell>
        <mxCell id="8ZNE8kO5BKtXkHlJv4oJ-9" value="BikeNetworkRemoteDataSource" style="rounded=0;whiteSpace=wrap;html=1;fillColor=#dae8fc;strokeColor=#6c8ebf;" parent="1" vertex="1">
          <mxGeometry x="350" y="910" width="200" height="60" as="geometry" />
        </mxCell>
        <mxCell id="8ZNE8kO5BKtXkHlJv4oJ-10" value="BikeNetworksEntity" style="rounded=0;whiteSpace=wrap;html=1;fillColor=#dae8fc;strokeColor=#6c8ebf;" parent="1" vertex="1">
          <mxGeometry x="160" y="420" width="120" height="60" as="geometry" />
        </mxCell>
        <mxCell id="8ZNE8kO5BKtXkHlJv4oJ-11" value="Use" style="endArrow=open;endSize=12;dashed=1;html=1;rounded=0;exitX=0;exitY=0.5;exitDx=0;exitDy=0;entryX=1;entryY=0.5;entryDx=0;entryDy=0;" parent="1" source="8ZNE8kO5BKtXkHlJv4oJ-5" target="8ZNE8kO5BKtXkHlJv4oJ-10" edge="1">
          <mxGeometry width="160" relative="1" as="geometry">
            <mxPoint x="330" y="470" as="sourcePoint" />
            <mxPoint x="490" y="470" as="targetPoint" />
          </mxGeometry>
        </mxCell>
        <mxCell id="8ZNE8kO5BKtXkHlJv4oJ-12" value="" style="endArrow=block;dashed=1;endFill=0;endSize=12;html=1;rounded=0;entryX=0.5;entryY=1;entryDx=0;entryDy=0;" parent="1" source="8ZNE8kO5BKtXkHlJv4oJ-5" target="8ZNE8kO5BKtXkHlJv4oJ-4" edge="1">
          <mxGeometry width="160" relative="1" as="geometry">
            <mxPoint x="330" y="470" as="sourcePoint" />
            <mxPoint x="490" y="470" as="targetPoint" />
          </mxGeometry>
        </mxCell>
        <mxCell id="8ZNE8kO5BKtXkHlJv4oJ-13" value="Use" style="endArrow=open;endSize=12;dashed=1;html=1;rounded=0;exitX=0.5;exitY=1;exitDx=0;exitDy=0;entryX=0.5;entryY=0;entryDx=0;entryDy=0;" parent="1" source="8ZNE8kO5BKtXkHlJv4oJ-5" target="8ZNE8kO5BKtXkHlJv4oJ-6" edge="1">
          <mxGeometry width="160" relative="1" as="geometry">
            <mxPoint x="330" y="600" as="sourcePoint" />
            <mxPoint x="490" y="600" as="targetPoint" />
          </mxGeometry>
        </mxCell>
        <mxCell id="8ZNE8kO5BKtXkHlJv4oJ-14" value="" style="endArrow=block;dashed=1;endFill=0;endSize=12;html=1;rounded=0;entryX=0.5;entryY=1;entryDx=0;entryDy=0;" parent="1" source="8ZNE8kO5BKtXkHlJv4oJ-7" target="8ZNE8kO5BKtXkHlJv4oJ-6" edge="1">
          <mxGeometry width="160" relative="1" as="geometry">
            <mxPoint x="330" y="680" as="sourcePoint" />
            <mxPoint x="490" y="680" as="targetPoint" />
          </mxGeometry>
        </mxCell>
        <mxCell id="8ZNE8kO5BKtXkHlJv4oJ-15" value="" style="endArrow=block;dashed=1;endFill=0;endSize=12;html=1;rounded=0;exitX=0.5;exitY=0;exitDx=0;exitDy=0;entryX=0.5;entryY=1;entryDx=0;entryDy=0;" parent="1" source="8ZNE8kO5BKtXkHlJv4oJ-9" target="8ZNE8kO5BKtXkHlJv4oJ-8" edge="1">
          <mxGeometry width="160" relative="1" as="geometry">
            <mxPoint x="330" y="950" as="sourcePoint" />
            <mxPoint x="490" y="950" as="targetPoint" />
          </mxGeometry>
        </mxCell>
        <mxCell id="8ZNE8kO5BKtXkHlJv4oJ-16" value="Use" style="endArrow=open;endSize=12;dashed=1;html=1;rounded=0;exitX=0.5;exitY=1;exitDx=0;exitDy=0;entryX=0.5;entryY=0;entryDx=0;entryDy=0;" parent="1" source="8ZNE8kO5BKtXkHlJv4oJ-7" target="8ZNE8kO5BKtXkHlJv4oJ-8" edge="1">
          <mxGeometry width="160" relative="1" as="geometry">
            <mxPoint x="330" y="770" as="sourcePoint" />
            <mxPoint x="490" y="770" as="targetPoint" />
          </mxGeometry>
        </mxCell>
        <mxCell id="8ZNE8kO5BKtXkHlJv4oJ-18" value="" style="endArrow=none;html=1;rounded=0;entryX=0.829;entryY=0.211;entryDx=0;entryDy=0;entryPerimeter=0;" parent="1" edge="1">
          <mxGeometry width="50" height="50" relative="1" as="geometry">
            <mxPoint x="30" y="260" as="sourcePoint" />
            <mxPoint x="709.8400000000001" y="260.53999999999996" as="targetPoint" />
          </mxGeometry>
        </mxCell>
        <mxCell id="8ZNE8kO5BKtXkHlJv4oJ-19" value="Presentation Layer" style="text;html=1;align=center;verticalAlign=middle;whiteSpace=wrap;rounded=0;" parent="1" vertex="1">
          <mxGeometry x="20" y="90" width="60" height="30" as="geometry" />
        </mxCell>
        <mxCell id="8ZNE8kO5BKtXkHlJv4oJ-20" value="Domain Layer" style="text;html=1;align=center;verticalAlign=middle;whiteSpace=wrap;rounded=0;" parent="1" vertex="1">
          <mxGeometry x="20" y="290" width="60" height="30" as="geometry" />
        </mxCell>
        <mxCell id="8ZNE8kO5BKtXkHlJv4oJ-21" value="" style="endArrow=none;html=1;rounded=0;entryX=0.829;entryY=0.211;entryDx=0;entryDy=0;entryPerimeter=0;" parent="1" edge="1">
          <mxGeometry width="50" height="50" relative="1" as="geometry">
            <mxPoint x="40" y="650" as="sourcePoint" />
            <mxPoint x="719.8400000000001" y="650.54" as="targetPoint" />
          </mxGeometry>
        </mxCell>
        <mxCell id="8ZNE8kO5BKtXkHlJv4oJ-22" value="Data Layer" style="text;html=1;align=center;verticalAlign=middle;whiteSpace=wrap;rounded=0;" parent="1" vertex="1">
          <mxGeometry x="20" y="680" width="60" height="30" as="geometry" />
        </mxCell>
        <mxCell id="8ZNE8kO5BKtXkHlJv4oJ-23" value="" style="endArrow=none;html=1;rounded=0;entryX=0.829;entryY=0.211;entryDx=0;entryDy=0;entryPerimeter=0;" parent="1" edge="1">
          <mxGeometry width="50" height="50" relative="1" as="geometry">
            <mxPoint x="50" y="1150" as="sourcePoint" />
            <mxPoint x="729.8400000000001" y="1150.54" as="targetPoint" />
          </mxGeometry>
        </mxCell>
        <mxCell id="8ZNE8kO5BKtXkHlJv4oJ-24" value="Network Layer" style="text;html=1;align=center;verticalAlign=middle;whiteSpace=wrap;rounded=0;" parent="1" vertex="1">
          <mxGeometry x="20" y="1203" width="60" height="30" as="geometry" />
        </mxCell>
        <mxCell id="8ZNE8kO5BKtXkHlJv4oJ-25" value="&amp;lt;interface&amp;gt;&lt;div&gt;BikeNetworkService&lt;/div&gt;" style="rounded=0;whiteSpace=wrap;html=1;fillColor=#B3B3B3;" parent="1" vertex="1">
          <mxGeometry x="610" y="1030" width="120" height="60" as="geometry" />
        </mxCell>
        <mxCell id="8ZNE8kO5BKtXkHlJv4oJ-26" value="Retrofit" style="rounded=0;whiteSpace=wrap;html=1;" parent="1" vertex="1">
          <mxGeometry x="390" y="1300" width="120" height="60" as="geometry" />
        </mxCell>
        <mxCell id="8ZNE8kO5BKtXkHlJv4oJ-27" value="Use" style="endArrow=open;endSize=12;dashed=1;html=1;rounded=0;exitX=0.5;exitY=1;exitDx=0;exitDy=0;entryX=0.5;entryY=0;entryDx=0;entryDy=0;" parent="1" source="8ZNE8kO5BKtXkHlJv4oJ-9" target="Na9Cz-mRtzjb4uJ2m-rb-1" edge="1">
          <mxGeometry width="160" relative="1" as="geometry">
            <mxPoint x="430" y="1140" as="sourcePoint" />
            <mxPoint x="394" y="1050" as="targetPoint" />
          </mxGeometry>
        </mxCell>
        <mxCell id="8ZNE8kO5BKtXkHlJv4oJ-29" value="Use" style="endArrow=open;endSize=12;dashed=1;html=1;rounded=0;exitX=0.5;exitY=1;exitDx=0;exitDy=0;entryX=0.5;entryY=0;entryDx=0;entryDy=0;" parent="1" source="8ZNE8kO5BKtXkHlJv4oJ-3" target="8ZNE8kO5BKtXkHlJv4oJ-4" edge="1">
          <mxGeometry width="160" relative="1" as="geometry">
            <mxPoint x="320" y="350" as="sourcePoint" />
            <mxPoint x="480" y="350" as="targetPoint" />
          </mxGeometry>
        </mxCell>
        <mxCell id="8ZNE8kO5BKtXkHlJv4oJ-30" value="Use" style="endArrow=open;endSize=12;dashed=1;html=1;rounded=0;exitX=1;exitY=0.5;exitDx=0;exitDy=0;entryX=0;entryY=0.5;entryDx=0;entryDy=0;" parent="1" source="8ZNE8kO5BKtXkHlJv4oJ-2" target="8ZNE8kO5BKtXkHlJv4oJ-3" edge="1">
          <mxGeometry width="160" relative="1" as="geometry">
            <mxPoint x="320" y="350" as="sourcePoint" />
            <mxPoint x="480" y="350" as="targetPoint" />
          </mxGeometry>
        </mxCell>
        <mxCell id="8ZNE8kO5BKtXkHlJv4oJ-31" value="Use" style="endArrow=open;endSize=12;dashed=1;html=1;rounded=0;" parent="1" edge="1">
          <mxGeometry width="160" relative="1" as="geometry">
            <mxPoint x="770" y="130" as="sourcePoint" />
            <mxPoint x="930" y="130" as="targetPoint" />
          </mxGeometry>
        </mxCell>
        <mxCell id="8ZNE8kO5BKtXkHlJv4oJ-32" value="Represents Use of&amp;nbsp;&lt;div&gt;a component&lt;/div&gt;" style="text;align=center;fontStyle=1;verticalAlign=middle;spacingLeft=3;spacingRight=3;strokeColor=none;rotatable=0;points=[[0,0.5],[1,0.5]];portConstraint=eastwest;html=1;" parent="1" vertex="1">
          <mxGeometry x="970" y="120" width="80" height="26" as="geometry" />
        </mxCell>
        <mxCell id="8ZNE8kO5BKtXkHlJv4oJ-33" value="" style="endArrow=block;dashed=1;endFill=0;endSize=12;html=1;rounded=0;" parent="1" edge="1">
          <mxGeometry width="160" relative="1" as="geometry">
            <mxPoint x="770" y="179.5" as="sourcePoint" />
            <mxPoint x="930" y="179.5" as="targetPoint" />
          </mxGeometry>
        </mxCell>
        <mxCell id="8ZNE8kO5BKtXkHlJv4oJ-34" value="Represents&amp;nbsp;&lt;div&gt;implementation&lt;br&gt;&lt;div&gt;of Interface&lt;/div&gt;&lt;/div&gt;" style="text;align=center;fontStyle=1;verticalAlign=middle;spacingLeft=3;spacingRight=3;strokeColor=none;rotatable=0;points=[[0,0.5],[1,0.5]];portConstraint=eastwest;html=1;" parent="1" vertex="1">
          <mxGeometry x="970" y="167" width="80" height="26" as="geometry" />
        </mxCell>
        <mxCell id="8ZNE8kO5BKtXkHlJv4oJ-35" value="" style="rounded=0;whiteSpace=wrap;html=1;fillColor=#dae8fc;strokeColor=#6c8ebf;" parent="1" vertex="1">
          <mxGeometry x="810" y="330" width="120" height="60" as="geometry" />
        </mxCell>
        <mxCell id="8ZNE8kO5BKtXkHlJv4oJ-36" value="" style="rounded=0;whiteSpace=wrap;html=1;fillColor=#B3B3B3;" parent="1" vertex="1">
          <mxGeometry x="810" y="240" width="120" height="60" as="geometry" />
        </mxCell>
        <mxCell id="8ZNE8kO5BKtXkHlJv4oJ-37" value="Text" style="text;html=1;align=center;verticalAlign=middle;whiteSpace=wrap;rounded=0;" parent="1" vertex="1">
          <mxGeometry x="560" y="420" width="60" height="30" as="geometry" />
        </mxCell>
        <mxCell id="8ZNE8kO5BKtXkHlJv4oJ-38" value="Interface" style="text;html=1;align=center;verticalAlign=middle;whiteSpace=wrap;rounded=0;" parent="1" vertex="1">
          <mxGeometry x="980" y="240" width="60" height="30" as="geometry" />
        </mxCell>
        <mxCell id="8ZNE8kO5BKtXkHlJv4oJ-39" value="App Component" style="text;html=1;align=center;verticalAlign=middle;whiteSpace=wrap;rounded=0;" parent="1" vertex="1">
          <mxGeometry x="980" y="330" width="60" height="30" as="geometry" />
        </mxCell>
        <mxCell id="8ZNE8kO5BKtXkHlJv4oJ-40" value="Use" style="endArrow=open;endSize=12;dashed=1;html=1;rounded=0;exitX=0;exitY=0.5;exitDx=0;exitDy=0;entryX=0.5;entryY=1;entryDx=0;entryDy=0;" parent="1" source="8ZNE8kO5BKtXkHlJv4oJ-7" target="8ZNE8kO5BKtXkHlJv4oJ-10" edge="1">
          <mxGeometry width="160" relative="1" as="geometry">
            <mxPoint x="390" y="690" as="sourcePoint" />
            <mxPoint x="550" y="690" as="targetPoint" />
            <Array as="points">
              <mxPoint x="220" y="720" />
            </Array>
          </mxGeometry>
        </mxCell>
        <mxCell id="8ZNE8kO5BKtXkHlJv4oJ-41" value="Use" style="endArrow=open;endSize=12;dashed=1;html=1;rounded=0;exitX=0;exitY=0.75;exitDx=0;exitDy=0;entryX=0.839;entryY=0.006;entryDx=0;entryDy=0;entryPerimeter=0;" parent="1" source="8ZNE8kO5BKtXkHlJv4oJ-3" target="8ZNE8kO5BKtXkHlJv4oJ-10" edge="1">
          <mxGeometry x="0.121" width="160" relative="1" as="geometry">
            <mxPoint x="390" y="580" as="sourcePoint" />
            <mxPoint x="550" y="580" as="targetPoint" />
            <Array as="points">
              <mxPoint x="261" y="195" />
            </Array>
            <mxPoint as="offset" />
          </mxGeometry>
        </mxCell>
        <mxCell id="Na9Cz-mRtzjb4uJ2m-rb-1" value="&amp;lt;interface&amp;gt;&lt;div&gt;NetworkClient&lt;/div&gt;" style="rounded=0;whiteSpace=wrap;html=1;fillColor=#B3B3B3;" vertex="1" parent="1">
          <mxGeometry x="355" y="1030" width="190" height="60" as="geometry" />
        </mxCell>
        <mxCell id="Na9Cz-mRtzjb4uJ2m-rb-4" value="NetworkClientImpl" style="rounded=0;whiteSpace=wrap;html=1;fillColor=#dae8fc;strokeColor=#6c8ebf;" vertex="1" parent="1">
          <mxGeometry x="360" y="1180" width="180" height="60" as="geometry" />
        </mxCell>
        <mxCell id="Na9Cz-mRtzjb4uJ2m-rb-5" value="" style="endArrow=block;dashed=1;endFill=0;endSize=12;html=1;rounded=0;exitX=0.5;exitY=0;exitDx=0;exitDy=0;" edge="1" parent="1" source="Na9Cz-mRtzjb4uJ2m-rb-4" target="Na9Cz-mRtzjb4uJ2m-rb-1">
          <mxGeometry width="160" relative="1" as="geometry">
            <mxPoint x="480" y="1080" as="sourcePoint" />
            <mxPoint x="640" y="1080" as="targetPoint" />
          </mxGeometry>
        </mxCell>
        <mxCell id="Na9Cz-mRtzjb4uJ2m-rb-6" value="Use" style="endArrow=open;endSize=12;dashed=1;html=1;rounded=0;exitX=0.5;exitY=1;exitDx=0;exitDy=0;entryX=0.5;entryY=0;entryDx=0;entryDy=0;" edge="1" parent="1" source="Na9Cz-mRtzjb4uJ2m-rb-4" target="8ZNE8kO5BKtXkHlJv4oJ-26">
          <mxGeometry width="160" relative="1" as="geometry">
            <mxPoint x="480" y="1060" as="sourcePoint" />
            <mxPoint x="640" y="1060" as="targetPoint" />
          </mxGeometry>
        </mxCell>
        <mxCell id="Na9Cz-mRtzjb4uJ2m-rb-7" value="Use" style="endArrow=open;endSize=12;dashed=1;html=1;rounded=0;exitX=1;exitY=0.5;exitDx=0;exitDy=0;entryX=0.5;entryY=0;entryDx=0;entryDy=0;" edge="1" parent="1" source="8ZNE8kO5BKtXkHlJv4oJ-9" target="8ZNE8kO5BKtXkHlJv4oJ-25">
          <mxGeometry width="160" relative="1" as="geometry">
            <mxPoint x="480" y="990" as="sourcePoint" />
            <mxPoint x="640" y="990" as="targetPoint" />
            <Array as="points">
              <mxPoint x="670" y="940" />
            </Array>
          </mxGeometry>
        </mxCell>
      </root>
    </mxGraphModel>
  </diagram>
</mxfile>
